<svg width="29" height="13" viewBox="0 0 29 13" fill="none" xmlns="http://www.w3.org/2000/svg">
<path d="M13.751 9.61406H12.7025V1.45581H15.482C16.1864 1.45581 16.7871 1.69062 17.2785 2.16023C17.7809 2.62985 18.0321 3.20322 18.0321 3.88035C18.0321 4.57385 17.7809 5.14722 17.2785 5.61138C16.7925 6.07554 16.1919 6.30489 15.482 6.30489H13.751V9.61406ZM13.751 2.46057V5.30558H15.5038C15.9188 5.30558 16.2683 5.16361 16.5414 4.88511C16.8198 4.60662 16.9618 4.26805 16.9618 3.88581C16.9618 3.50902 16.8198 3.17592 16.5414 2.89743C16.2683 2.60801 15.9243 2.46603 15.5038 2.46603H13.751V2.46057Z" fill="#3C4043"/>
<path d="M20.7732 3.84758C21.5487 3.84758 22.1603 4.05509 22.608 4.4701C23.0558 4.88511 23.2797 5.45302 23.2797 6.17383V9.61406H22.2804V8.83864H22.2367C21.8053 9.47754 21.2265 9.79426 20.5057 9.79426C19.8886 9.79426 19.3753 9.61406 18.9603 9.24819C18.5453 8.88233 18.3378 8.42909 18.3378 7.88302C18.3378 7.30419 18.5562 6.84549 18.9931 6.50693C19.4299 6.16291 20.0142 5.99363 20.7405 5.99363C21.363 5.99363 21.8763 6.1083 22.2749 6.33765V6.09738C22.2749 5.73152 22.1329 5.42572 21.8435 5.16907C21.5541 4.91241 21.2156 4.78682 20.8279 4.78682C20.2436 4.78682 19.7794 5.03255 19.4408 5.52947L18.518 4.95064C19.0258 4.21345 19.7794 3.84758 20.7732 3.84758ZM19.419 7.8994C19.419 8.17244 19.5337 8.40179 19.7685 8.58199C19.9978 8.76219 20.2709 8.85502 20.5821 8.85502C21.0244 8.85502 21.4176 8.6912 21.7616 8.36356C22.1056 8.03592 22.2804 7.65367 22.2804 7.21136C21.9527 6.95471 21.4995 6.82365 20.9152 6.82365C20.4893 6.82365 20.1343 6.9274 19.8504 7.12945C19.561 7.34242 19.419 7.59907 19.419 7.8994Z" fill="#3C4043"/>
<path d="M28.9807 4.02784L25.4858 12.066H24.4046L25.7043 9.25371L23.3999 4.02784H24.5412L26.2012 8.03597H26.223L27.8394 4.02784H28.9807Z" fill="#3C4043"/>
<path d="M9.58059 5.64415C9.58059 5.30231 9.55001 4.97522 9.49322 4.66068H5.09849V6.4627L7.6295 6.46325C7.52684 7.06283 7.19647 7.57395 6.69027 7.9147V9.08383H8.19686C9.07657 8.26964 9.58059 7.06611 9.58059 5.64415Z" fill="#4285F4"/>
<path d="M6.6908 7.91475C6.27143 8.19762 5.73137 8.36308 5.09957 8.36308C3.87912 8.36308 2.84378 7.5407 2.473 6.43218H0.918898V7.6379C1.68885 9.1658 3.27135 10.2142 5.09957 10.2142C6.36316 10.2142 7.42471 9.79869 8.1974 9.08334L6.6908 7.91475Z" fill="#34A853"/>
<path d="M2.32661 5.53765C2.32661 5.2264 2.37848 4.92551 2.47295 4.64265V3.43693H0.918851C0.600495 4.06873 0.421387 4.7819 0.421387 5.53765C0.421387 6.29341 0.601041 7.00658 0.918851 7.63838L2.47295 6.43266C2.37848 6.1498 2.32661 5.84891 2.32661 5.53765Z" fill="#FABB05"/>
<path d="M5.09957 2.71176C5.78925 2.71176 6.40685 2.9493 6.89448 3.41346L8.22961 2.07942C7.41871 1.32421 6.36153 0.860596 5.09957 0.860596C3.27189 0.860596 1.6888 1.90904 0.918851 3.43693L2.47295 4.64265C2.84373 3.53413 3.87912 2.71176 5.09957 2.71176Z" fill="#E94235"/>
</svg>
