<svg width="28" height="12" viewBox="0 0 28 12" fill="none" xmlns="http://www.w3.org/2000/svg">
<path d="M5.92002 2.08147C6.23102 1.69248 6.44205 1.17019 6.38639 0.636475C5.93115 0.659112 5.3756 0.936818 5.05397 1.32611C4.76518 1.65947 4.50958 2.20363 4.57621 2.71498C5.08725 2.7593 5.59782 2.45954 5.92002 2.08147Z" fill="#000008"/>
<path d="M6.38061 2.81482C5.63845 2.77062 5.00744 3.23603 4.65303 3.23603C4.29842 3.23603 3.75569 2.8371 3.16869 2.84785C2.40467 2.85907 1.69574 3.29106 1.30804 3.97812C0.510587 5.35257 1.09759 7.39136 1.87307 8.51078C2.24966 9.06459 2.70351 9.67437 3.30153 9.65247C3.86656 9.6303 4.08803 9.2866 4.77485 9.2866C5.46117 9.2866 5.66066 9.65247 6.25878 9.64139C6.87905 9.6303 7.26682 9.0873 7.64341 8.53295C8.07543 7.90164 8.25228 7.29205 8.2634 7.25859C8.25228 7.2475 7.06736 6.79294 7.05637 5.42991C7.04518 4.28862 7.98667 3.74576 8.03098 3.7121C7.49931 2.92576 6.6686 2.8371 6.38061 2.81482Z" fill="#000008"/>
<path d="M12.8427 1.27028C14.4557 1.27028 15.579 2.38217 15.579 4.00101C15.579 5.62563 14.4326 6.7433 12.8022 6.7433H11.0163V9.58348H9.7259V1.27028L12.8427 1.27028ZM11.0163 5.66018H12.4969C13.6203 5.66018 14.2597 5.05534 14.2597 4.00679C14.2597 2.95834 13.6203 2.35917 12.5026 2.35917H11.0163V5.66018Z" fill="#000008"/>
<path d="M15.9161 7.86095C15.9161 6.80084 16.7284 6.14989 18.1688 6.06921L19.8278 5.97131V5.50471C19.8278 4.83064 19.3727 4.42737 18.6124 4.42737C17.8921 4.42737 17.4427 4.77296 17.3333 5.31458H16.1581C16.2272 4.2199 17.1604 3.41338 18.6584 3.41338C20.1274 3.41338 21.0664 4.19112 21.0664 5.4067V9.58347H19.8738V8.58681H19.8451C19.4938 9.26088 18.7275 9.68715 17.9325 9.68715C16.7457 9.68715 15.9161 8.94973 15.9161 7.86095ZM19.8278 7.31367V6.83551L18.3357 6.92764C17.5925 6.97953 17.172 7.3079 17.172 7.8264C17.172 8.35634 17.6098 8.70204 18.2781 8.70204C19.148 8.70204 19.8278 8.10287 19.8278 7.31367Z" fill="#000008"/>
<path d="M22.1923 11.813V10.8048C22.2843 10.8278 22.4916 10.8278 22.5954 10.8278C23.1715 10.8278 23.4826 10.5859 23.6727 9.96373C23.6727 9.95217 23.7822 9.59502 23.7822 9.58925L21.5931 3.52283H22.941L24.4736 8.45435H24.4965L26.0291 3.52283H27.3426L25.0726 9.90028C24.5543 11.3694 23.9551 11.8418 22.6992 11.8418C22.5954 11.8418 22.2843 11.8303 22.1923 11.813Z" fill="#000008"/>
</svg>
